<svg xmlns="http://www.w3.org/2000/svg" viewBox="0 0 49.44 49.47"><defs><style>.cls-1{fill:#20b2a6;}.cls-2{fill:#fff;}</style></defs><g id="Warstwa_2" data-name="Warstwa 2"><g id="Warstwa_1-2" data-name="Warstwa 1"><path class="cls-1" d="M24.73,0C4.93,0-6.42,21.82,3.87,38v0L.32,45.24A2.89,2.89,0,0,0,4.2,49.11l7.24-3.57A24.71,24.71,0,1,0,24.73,0Z"/><path class="cls-2" d="M15.43,23.85A2.65,2.65,0,0,0,17,19.1l-3.17-2.43L17,14.23a2.66,2.66,0,0,0,.49-3.71A2.7,2.7,0,0,0,13.82,10L7.91,14.57a2.65,2.65,0,0,0-1,2.1,2.62,2.62,0,0,0,1,2.09l5.91,4.54A2.59,2.59,0,0,0,15.43,23.85Z"/><path class="cls-2" d="M36.19,13.26a2.73,2.73,0,0,0-3.74,0l-19.2,19.2A2.64,2.64,0,1,0,17,36.2L36.19,17A2.65,2.65,0,0,0,36.19,13.26Z"/><path class="cls-2" d="M41.52,31.3l-5.9-4.53a2.7,2.7,0,0,0-3.71.48A2.65,2.65,0,0,0,32.4,31l3.17,2.44L32.4,35.84A2.65,2.65,0,0,0,34,40.58,2.68,2.68,0,0,0,35.62,40l5.91-4.53a2.65,2.65,0,0,0,0-4.2Z"/></g></g></svg>